<?xml version="1.0" encoding="utf-8"?><svg xml:space="preserve" viewBox="0 0 100 100" y="0" x="0" xmlns="http://www.w3.org/2000/svg" id="圖層_1" version="1.1" width="275px" height="275px" xmlns:xlink="http://www.w3.org/1999/xlink" style="width:100%;height:100%;background-size:initial;background-repeat-y:initial;background-repeat-x:initial;background-position-y:initial;background-position-x:initial;background-origin:initial;background-color:initial;background-clip:initial;background-attachment:initial;animation-play-state:paused" ><g class="ldl-scale" style="transform-origin:50% 50%;transform:rotate(0deg) scale(0.8, 0.8);animation-play-state:paused" ><path fill="#f47e60" d="M50 40.6c-23.5 0-42.5 4.2-42.5 9.4h14.2c0-3.5 12.7-6.3 28.3-6.3s28.3 2.8 28.3 6.3h14.2c0-5.2-19-9.4-42.5-9.4z" style="fill:rgb(244, 126, 96);animation-play-state:paused" ></path>
<circle fill="#f8b26a" r="25.7" cy="50" cx="50" style="fill:rgb(248, 178, 106);animation-play-state:paused" ></circle>
<path fill="none" d="M50 56.3c15.6 0 28.3-2.8 28.3-6.3H21.7c0 3.5 12.7 6.3 28.3 6.3z" style="animation-play-state:paused" ></path>
<path fill="#f47e60" d="M50 56.3c-15.6 0-28.3-2.8-28.3-6.3H7.5c0 5.2 19 9.4 42.5 9.4s42.5-4.2 42.5-9.4H78.3c0 3.5-12.7 6.3-28.3 6.3z" style="fill:rgb(244, 126, 96);animation-play-state:paused" ></path>
<metadata xmlns:d="https://loading.io/stock/" style="animation-play-state:paused" ><d:name style="animation-play-state:paused" >saturn</d:name>


<d:tags style="animation-play-state:paused" >star,solar system,planet,saturn,astrology</d:tags>


<d:license style="animation-play-state:paused" >by</d:license>


<d:slug style="animation-play-state:paused" >2ez0ua</d:slug></metadata></g><!-- generated by https://loading.io/ --></svg>